<?xml version="1.0" encoding="UTF-8" standalone="no"?>
<svg
   xmlns:dc="http://purl.org/dc/elements/1.1/"
   xmlns:cc="http://creativecommons.org/ns#"
   xmlns:rdf="http://www.w3.org/1999/02/22-rdf-syntax-ns#"
   xmlns:svg="http://www.w3.org/2000/svg"
   xmlns="http://www.w3.org/2000/svg"
   xmlns:sodipodi="http://sodipodi.sourceforge.net/DTD/sodipodi-0.dtd"
   xmlns:inkscape="http://www.inkscape.org/namespaces/inkscape"
   version="1.1"
   width="29.7002cm"
   height="21.0007cm"
   viewBox="0 0 116930 82680 "
   id="svg856"
   sodipodi:docname="RotaryEncoderAttinyPCB.svg"
   inkscape:version="0.92.0 r15299">
  <metadata
     id="metadata862">
    <rdf:RDF>
      <cc:Work
         rdf:about="">
        <dc:format>image/svg+xml</dc:format>
        <dc:type
           rdf:resource="http://purl.org/dc/dcmitype/StillImage" />
        <dc:title>SVG Picture created as RotaryEncoderAttiny85-F.Cu.svg date 2018/05/24 15:26:24 </dc:title>
      </cc:Work>
    </rdf:RDF>
  </metadata>
  <defs
     id="defs860" />
  <sodipodi:namedview
     pagecolor="#ffffff"
     bordercolor="#666666"
     borderopacity="1"
     objecttolerance="10"
     gridtolerance="10"
     guidetolerance="10"
     inkscape:pageopacity="0"
     inkscape:pageshadow="2"
     inkscape:window-width="1920"
     inkscape:window-height="1028"
     id="namedview858"
     showgrid="false"
     inkscape:zoom="0.5060011"
     inkscape:cx="-124.88035"
     inkscape:cy="524.63536"
     inkscape:window-x="-8"
     inkscape:window-y="-8"
     inkscape:window-maximized="1"
     inkscape:current-layer="svg856" />
  <title
     id="title2">SVG Picture created as RotaryEncoderAttiny85-F.Cu.svg date 2018/05/24 15:26:24 </title>
  <desc
     id="desc4">Picture generated by PCBNEW </desc>
  <g
     style="fill:#000000; fill-opacity:1;stroke:#000000; stroke-opacity:1; stroke-linecap:round; stroke-linejoin:round; "
     transform="translate(0 0) scale(1 1)"
     id="g6" />
  <g
     style="fill:#000000; fill-opacity:0.0;  stroke:#000000; stroke-width:-0.000393701; stroke-opacity:1;  stroke-linecap:round; stroke-linejoin:round;"
     id="g8" />
  <g
     style="fill:#000000; fill-opacity:0.0;  stroke:#000000; stroke-width:39.3701; stroke-opacity:1;  stroke-linecap:round; stroke-linejoin:round;"
     id="g10" />
  <g
     style="fill:#000000; fill-opacity:0.0;  stroke:#000000; stroke-width:39.3701; stroke-opacity:1;  stroke-linecap:round; stroke-linejoin:round;"
     id="g16" />
  <g
     style="fill:#000000; fill-opacity:0.0;  stroke:#000000; stroke-width:39.3701; stroke-opacity:1;  stroke-linecap:round; stroke-linejoin:round;"
     id="g22" />
  <g
     style="fill:#000000; fill-opacity:0.0;  stroke:#000000; stroke-width:39.3701; stroke-opacity:1;  stroke-linecap:round; stroke-linejoin:round;"
     id="g28" />
  <g
     style="fill:#000000; fill-opacity:0.0;  stroke:#000000; stroke-width:39.3701; stroke-opacity:1;  stroke-linecap:round; stroke-linejoin:round;"
     id="g34" />
  <g
     style="fill:#000000; fill-opacity:0.0;  stroke:#000000; stroke-width:39.3701; stroke-opacity:1;  stroke-linecap:round; stroke-linejoin:round;"
     id="g40" />
  <g
     style="fill:#000000; fill-opacity:0.0;  stroke:#000000; stroke-width:39.3701; stroke-opacity:1;  stroke-linecap:round; stroke-linejoin:round;"
     id="g46" />
  <g
     style="fill:#000000; fill-opacity:0.0;  stroke:#000000; stroke-width:39.3701; stroke-opacity:1;  stroke-linecap:round; stroke-linejoin:round;"
     id="g52" />
  <g
     style="fill:#000000; fill-opacity:0.0;  stroke:#000000; stroke-width:39.3701; stroke-opacity:1;  stroke-linecap:round; stroke-linejoin:round;"
     id="g58" />
  <g
     style="fill:#000000; fill-opacity:0.0;  stroke:#000000; stroke-width:39.3701; stroke-opacity:1;  stroke-linecap:round; stroke-linejoin:round;"
     id="g66" />
  <g
     style="fill:#000000; fill-opacity:0.0;  stroke:#000000; stroke-width:39.3701; stroke-opacity:1;  stroke-linecap:round; stroke-linejoin:round;"
     id="g72" />
  <g
     style="fill:#000000; fill-opacity:0.0;  stroke:#000000; stroke-width:39.3701; stroke-opacity:1;  stroke-linecap:round; stroke-linejoin:round;"
     id="g78" />
  <g
     style="fill:#000000; fill-opacity:0.0;  stroke:#000000; stroke-width:39.3701; stroke-opacity:1;  stroke-linecap:round; stroke-linejoin:round;"
     id="g86" />
  <g
     style="fill:#000000; fill-opacity:0.0;  stroke:#000000; stroke-width:39.3701; stroke-opacity:1;  stroke-linecap:round; stroke-linejoin:round;"
     id="g92" />
  <g
     style="fill:#000000; fill-opacity:0.0;  stroke:#000000; stroke-width:39.3701; stroke-opacity:1;  stroke-linecap:round; stroke-linejoin:round;"
     id="g98" />
  <g
     style="fill:#000000; fill-opacity:0.0;  stroke:#000000; stroke-width:39.3701; stroke-opacity:1;  stroke-linecap:round; stroke-linejoin:round;"
     id="g104" />
  <g
     style="fill:#000000; fill-opacity:0.0;  stroke:#000000; stroke-width:39.3701; stroke-opacity:1;  stroke-linecap:round; stroke-linejoin:round;"
     id="g110" />
  <g
     style="fill:#000000; fill-opacity:0.0;  stroke:#000000; stroke-width:39.3701; stroke-opacity:1;  stroke-linecap:round; stroke-linejoin:round;"
     id="g116" />
  <g
     style="fill:#000000; fill-opacity:0.0;  stroke:#000000; stroke-width:39.3701; stroke-opacity:1;  stroke-linecap:round; stroke-linejoin:round;"
     id="g122" />
  <g
     style="fill:#000000; fill-opacity:0.0;  stroke:#000000; stroke-width:39.3701; stroke-opacity:1;  stroke-linecap:round; stroke-linejoin:round;"
     id="g128" />
  <g
     style="fill:#000000; fill-opacity:0.0;  stroke:#000000; stroke-width:39.3701; stroke-opacity:1;  stroke-linecap:round; stroke-linejoin:round;"
     id="g136" />
  <g
     style="fill:#000000; fill-opacity:0.0;  stroke:#000000; stroke-width:39.3701; stroke-opacity:1;  stroke-linecap:round; stroke-linejoin:round;"
     id="g142" />
  <g
     style="fill:#000000; fill-opacity:0.0;  stroke:#000000; stroke-width:39.3701; stroke-opacity:1;  stroke-linecap:round; stroke-linejoin:round;"
     id="g148" />
  <g
     style="fill:#000000; fill-opacity:0.0;  stroke:#000000; stroke-width:39.3701; stroke-opacity:1;  stroke-linecap:round; stroke-linejoin:round;"
     id="g156" />
  <g
     style="fill:#000000; fill-opacity:0.0;  stroke:#000000; stroke-width:39.3701; stroke-opacity:1;  stroke-linecap:round; stroke-linejoin:round;"
     id="g162" />
  <g
     style="fill:#000000; fill-opacity:0.0;  stroke:#000000; stroke-width:39.3701; stroke-opacity:1;  stroke-linecap:round; stroke-linejoin:round;"
     id="g168" />
  <g
     style="fill:#000000; fill-opacity:0.0;  stroke:#000000; stroke-width:39.3701; stroke-opacity:1;  stroke-linecap:round; stroke-linejoin:round;"
     id="g174" />
  <g
     style="fill:#000000; fill-opacity:0.0;  stroke:#000000; stroke-width:39.3701; stroke-opacity:1;  stroke-linecap:round; stroke-linejoin:round;"
     id="g180" />
  <g
     style="fill:#000000; fill-opacity:0.0;  stroke:#000000; stroke-width:39.3701; stroke-opacity:1;  stroke-linecap:round; stroke-linejoin:round;"
     id="g186" />
  <g
     style="fill:#000000; fill-opacity:0.0;  stroke:#000000; stroke-width:39.3701; stroke-opacity:1;  stroke-linecap:round; stroke-linejoin:round;"
     id="g194" />
  <g
     style="fill:#000000; fill-opacity:0.0;  stroke:#000000; stroke-width:39.3701; stroke-opacity:1;  stroke-linecap:round; stroke-linejoin:round;"
     id="g200" />
  <g
     style="fill:#000000; fill-opacity:0.0;  stroke:#000000; stroke-width:39.3701; stroke-opacity:1;  stroke-linecap:round; stroke-linejoin:round;"
     id="g206" />
  <g
     style="fill:#000000; fill-opacity:0.0;  stroke:#000000; stroke-width:39.3701; stroke-opacity:1;  stroke-linecap:round; stroke-linejoin:round;"
     id="g212" />
  <g
     style="fill:#000000; fill-opacity:0.0;  stroke:#000000; stroke-width:39.3701; stroke-opacity:1;  stroke-linecap:round; stroke-linejoin:round;"
     id="g218" />
  <g
     style="fill:#000000; fill-opacity:0.0;  stroke:#000000; stroke-width:39.3701; stroke-opacity:1;  stroke-linecap:round; stroke-linejoin:round;"
     id="g224" />
  <g
     style="fill:#000000; fill-opacity:0.0;  stroke:#000000; stroke-width:39.3701; stroke-opacity:1;  stroke-linecap:round; stroke-linejoin:round;"
     id="g230" />
  <g
     style="fill:#000000; fill-opacity:0.0;  stroke:#000000; stroke-width:39.3701; stroke-opacity:1;  stroke-linecap:round; stroke-linejoin:round;"
     id="g238" />
  <g
     style="fill:#000000; fill-opacity:0.0;  stroke:#000000; stroke-width:39.3701; stroke-opacity:1;  stroke-linecap:round; stroke-linejoin:round;"
     id="g244" />
  <g
     style="fill:#000000; fill-opacity:0.0;  stroke:#000000; stroke-width:39.3701; stroke-opacity:1;  stroke-linecap:round; stroke-linejoin:round;"
     id="g250" />
  <g
     style="fill:#000000; fill-opacity:0.0;  stroke:#000000; stroke-width:39.3701; stroke-opacity:1;  stroke-linecap:round; stroke-linejoin:round;"
     id="g256" />
  <g
     style="fill:#000000; fill-opacity:0.0;  stroke:#000000; stroke-width:39.3701; stroke-opacity:1;  stroke-linecap:round; stroke-linejoin:round;"
     id="g276" />
  <g
     style="fill:#000000; fill-opacity:0.0;  stroke:#000000; stroke-width:39.3701; stroke-opacity:1;  stroke-linecap:round; stroke-linejoin:round;"
     id="g282" />
  <g
     style="fill:#000000; fill-opacity:0.0;  stroke:#000000; stroke-width:39.3701; stroke-opacity:1;  stroke-linecap:round; stroke-linejoin:round;"
     id="g354" />
  <g
     style="fill:#000000; fill-opacity:0.0;  stroke:#000000; stroke-width:39.3701; stroke-opacity:1;  stroke-linecap:round; stroke-linejoin:round;"
     id="g360" />
  <g
     style="fill:#000000; fill-opacity:0.0;  stroke:#000000; stroke-width:39.3701; stroke-opacity:1;  stroke-linecap:round; stroke-linejoin:round;"
     id="g376" />
  <g
     style="fill:#000000; fill-opacity:0.0;  stroke:#000000; stroke-width:39.3701; stroke-opacity:1;  stroke-linecap:round; stroke-linejoin:round;"
     id="g402" />
  <g
     style="fill:#000000; fill-opacity:0.0;  stroke:#000000; stroke-width:39.3701; stroke-opacity:1;  stroke-linecap:round; stroke-linejoin:round;"
     id="g426" />
  <g
     style="fill:#000000; fill-opacity:0.0;  stroke:#000000; stroke-width:39.3701; stroke-opacity:1;  stroke-linecap:round; stroke-linejoin:round;"
     id="g432" />
  <g
     style="fill:#000000; fill-opacity:0.0;  stroke:#000000; stroke-width:39.3701; stroke-opacity:1;  stroke-linecap:round; stroke-linejoin:round;"
     id="g456" />
  <g
     style="fill:#000000; fill-opacity:0.0;  stroke:#000000; stroke-width:39.3701; stroke-opacity:1;  stroke-linecap:round; stroke-linejoin:round;"
     id="g582" />
  <g
     style="fill:#000000; fill-opacity:0.0;  stroke:#000000; stroke-width:39.3701; stroke-opacity:1;  stroke-linecap:round; stroke-linejoin:round;"
     id="g588" />
  <g
     style="fill:#000000; fill-opacity:0.0;  stroke:#000000; stroke-width:39.3701; stroke-opacity:1;  stroke-linecap:round; stroke-linejoin:round;"
     id="g610" />
  <g
     style="fill:#000000; fill-opacity:0.0;  stroke:#000000; stroke-width:39.3701; stroke-opacity:1;  stroke-linecap:round; stroke-linejoin:round;"
     id="g616" />
  <g
     style="fill:#000000; fill-opacity:0.0;  stroke:#000000; stroke-width:0; stroke-opacity:1;  stroke-linecap:round; stroke-linejoin:round;"
     id="g622" />
  <g
     style="fill:#000000; fill-opacity:1.0;  stroke:#000000; stroke-width:669.291; stroke-opacity:1;  stroke-linecap:round; stroke-linejoin:round;"
     id="g662" />
  <g
     style="fill:#000000; fill-opacity:0.0;  stroke:#000000; stroke-width:0; stroke-opacity:1;  stroke-linecap:round; stroke-linejoin:round;"
     id="g670" />
  <g
     style="fill:#000000; fill-opacity:1.0;  stroke:#000000; stroke-width:669.291; stroke-opacity:1;  stroke-linecap:round; stroke-linejoin:round;"
     id="g676" />
  <g
     style="fill:#000000; fill-opacity:1.0;  stroke:#000000; stroke-width:39.3701; stroke-opacity:1;  stroke-linecap:round; stroke-linejoin:round;"
     id="g688" />
  <g
     style="fill:#000000; fill-opacity:1.0;  stroke:#000000; stroke-width:39.3701; stroke-opacity:1;  stroke-linecap:round; stroke-linejoin:round;"
     id="g694" />
  <g
     style="fill:#000000; fill-opacity:1.0;  stroke:#000000; stroke-width:393.701; stroke-opacity:1;  stroke-linecap:round; stroke-linejoin:round;"
     id="g696" />
  <g
     style="fill:#FFFFFF; fill-opacity:1.0;  stroke:#FFFFFF; stroke-width:100; stroke-opacity:1;  stroke-linecap:round; stroke-linejoin:round;"
     id="g762" />
  <g
     style="fill:#FFFFFF; fill-opacity:1.0;  stroke:#FFFFFF; stroke-width:39.3701; stroke-opacity:1;  stroke-linecap:round; stroke-linejoin:round;"
     id="g768" />
  <g
     style="fill:#FFFFFF; fill-opacity:1.0;  stroke:#FFFFFF; stroke-width:39.3701; stroke-opacity:1;  stroke-linecap:round; stroke-linejoin:round;"
     id="g774" />
  <g
     style="fill:#FFFFFF; fill-opacity:1.0;  stroke:#FFFFFF; stroke-width:39.3701; stroke-opacity:1;  stroke-linecap:round; stroke-linejoin:round;"
     id="g780" />
  <g
     style="fill:#FFFFFF; fill-opacity:1.0;  stroke:#FFFFFF; stroke-width:39.3701; stroke-opacity:1;  stroke-linecap:round; stroke-linejoin:round;"
     id="g786" />
  <g
     style="fill:#FFFFFF; fill-opacity:1.0;  stroke:#FFFFFF; stroke-width:39.3701; stroke-opacity:1;  stroke-linecap:round; stroke-linejoin:round;"
     id="g792" />
  <g
     style="fill:#FFFFFF; fill-opacity:1.0;  stroke:#FFFFFF; stroke-width:39.3701; stroke-opacity:1;  stroke-linecap:round; stroke-linejoin:round;"
     id="g798" />
  <g
     style="fill:#FFFFFF; fill-opacity:1.0;  stroke:#FFFFFF; stroke-width:39.3701; stroke-opacity:1;  stroke-linecap:round; stroke-linejoin:round;"
     id="g804" />
  <g
     style="fill:#FFFFFF; fill-opacity:1.0;  stroke:#FFFFFF; stroke-width:39.3701; stroke-opacity:1;  stroke-linecap:round; stroke-linejoin:round;"
     id="g810" />
  <g
     style="fill:#FFFFFF; fill-opacity:1.0;  stroke:#FFFFFF; stroke-width:39.3701; stroke-opacity:1;  stroke-linecap:round; stroke-linejoin:round;"
     id="g816" />
  <g
     style="fill:#FFFFFF; fill-opacity:1.0;  stroke:#FFFFFF; stroke-width:39.3701; stroke-opacity:1;  stroke-linecap:round; stroke-linejoin:round;"
     id="g822" />
  <g
     style="fill:#FFFFFF; fill-opacity:1.0;  stroke:#FFFFFF; stroke-width:39.3701; stroke-opacity:1;  stroke-linecap:round; stroke-linejoin:round;"
     id="g828" />
  <g
     style="fill:#FFFFFF; fill-opacity:1.0;  stroke:#FFFFFF; stroke-width:39.3701; stroke-opacity:1;  stroke-linecap:round; stroke-linejoin:round;"
     id="g834" />
  <g
     style="fill:#FFFFFF; fill-opacity:1.0;  stroke:#FFFFFF; stroke-width:39.3701; stroke-opacity:1;  stroke-linecap:round; stroke-linejoin:round;"
     id="g840" />
  <g
     style="fill:#FFFFFF; fill-opacity:1.0;  stroke:#FFFFFF; stroke-width:39.3701; stroke-opacity:1;  stroke-linecap:round; stroke-linejoin:round;"
     id="g846" />
  <g
     id="g7009"
     transform="matrix(-1,0,0,1,86247.014,21593.386)">
    <g
       id="g660"
       style="fill:#000000;fill-opacity:1;stroke:#000000;stroke-width:0;stroke-linecap:round;stroke-linejoin:round;stroke-opacity:1">
      <polyline
         id="polyline624"
         points="63106,45300 63106,44700 63893,44700 63893,45300 63106,45300 "
         style="fill-rule:evenodd" />
      <polyline
         id="polyline626"
         points="63106,44315 63106,43715 63893,43715 63893,44315 63106,44315 "
         style="fill-rule:evenodd" />
      <polyline
         id="polyline628"
         points="63106,43331 63106,42731 63893,42731 63893,43331 63106,43331 "
         style="fill-rule:evenodd" />
      <polyline
         id="polyline630"
         points="68814,43528 68814,42928 69602,42928 69602,43528 68814,43528 "
         style="fill-rule:evenodd" />
      <polyline
         id="polyline632"
         points="68814,45300 68814,44700 69602,44700 69602,45300 68814,45300 "
         style="fill-rule:evenodd" />
      <polyline
         id="polyline634"
         points="65862,47401 65862,45826 67043,45826 67043,47401 65862,47401 "
         style="fill-rule:evenodd" />
      <polyline
         id="polyline636"
         points="65862,42204 65862,40629 67043,40629 67043,42204 65862,42204 "
         style="fill-rule:evenodd" />
      <polyline
         id="polyline638"
         points="65287,45753 65287,46246 64696,46246 64696,45753 65287,45753 "
         style="fill-rule:evenodd" />
      <polyline
         id="polyline640"
         points="64303,45753 64303,46246 63712,46246 63712,45753 64303,45753 "
         style="fill-rule:evenodd" />
      <polyline
         id="polyline642"
         points="68301,44641 68301,44858 67612,44858 67612,44641 68301,44641 "
         style="fill-rule:evenodd" />
      <polyline
         id="polyline644"
         points="68301,44141 68301,44358 67612,44358 67612,44141 68301,44141 "
         style="fill-rule:evenodd" />
      <polyline
         id="polyline646"
         points="68301,43641 68301,43858 67612,43858 67612,43641 68301,43641 "
         style="fill-rule:evenodd" />
      <polyline
         id="polyline648"
         points="68301,43141 68301,43358 67612,43358 67612,43141 68301,43141 "
         style="fill-rule:evenodd" />
      <polyline
         id="polyline650"
         points="65387,43141 65387,43358 64698,43358 64698,43141 65387,43141 "
         style="fill-rule:evenodd" />
      <polyline
         id="polyline652"
         points="65387,43641 65387,43858 64698,43858 64698,43641 65387,43641 "
         style="fill-rule:evenodd" />
      <polyline
         id="polyline654"
         points="65387,44141 65387,44358 64698,44358 64698,44141 65387,44141 "
         style="fill-rule:evenodd" />
      <polyline
         id="polyline656"
         points="65387,44641 65387,44858 64698,44858 64698,44641 65387,44641 "
         style="fill-rule:evenodd" />
      <polyline
         id="polyline658"
         points="63334,48834 62665,48834 62665,48165 63334,48165 63334,48834 "
         style="fill-rule:evenodd" />
    </g>
    <g
       id="g668"
       style="fill:#000000;fill-opacity:0;stroke:#000000;stroke-width:669.29101563;stroke-linecap:round;stroke-linejoin:round;stroke-opacity:1">
      <path
         id="path664"
         d="m 64000,48500 v 0"
         inkscape:connector-curvature="0" />
      <path
         id="path666"
         d="m 65000,48500 v 0"
         inkscape:connector-curvature="0" />
    </g>
    <g
       id="g674"
       style="fill:#000000;fill-opacity:1;stroke:#000000;stroke-width:0;stroke-linecap:round;stroke-linejoin:round;stroke-opacity:1">
      <polyline
         id="polyline672"
         points="64665,39165 65334,39165 65334,39834 64665,39834 64665,39165 "
         style="fill-rule:evenodd" />
    </g>
    <g
       id="g682"
       style="fill:#000000;fill-opacity:0;stroke:#000000;stroke-width:669.29101563;stroke-linecap:round;stroke-linejoin:round;stroke-opacity:1">
      <path
         id="path678"
         d="m 64000,39500 v 0"
         inkscape:connector-curvature="0" />
      <path
         id="path680"
         d="m 63000,39500 v 0"
         inkscape:connector-curvature="0" />
    </g>
    <g
       id="g686"
       style="fill:#000000;fill-opacity:1;stroke:#000000;stroke-width:0;stroke-linecap:round;stroke-linejoin:round;stroke-opacity:1">
      <circle
         id="circle684"
         r="1122.05"
         cy="40000"
         cx="68750" />
    </g>
    <g
       id="g692"
       style="fill:#000000;fill-opacity:1;stroke:#000000;stroke-width:0;stroke-linecap:round;stroke-linejoin:round;stroke-opacity:1">
      <circle
         id="circle690"
         r="1122.05"
         cy="48000"
         cx="68750" />
    </g>
    <g
       id="g706"
       style="fill:#000000;fill-opacity:0;stroke:#000000;stroke-width:393.70098877;stroke-linecap:round;stroke-linejoin:round;stroke-opacity:1">
      <path
         id="path698"
         d="M 65000,48500 V 46007"
         inkscape:connector-curvature="0" />
      <path
         id="path700"
         d="m 65000,46007 -8,-7"
         inkscape:connector-curvature="0" />
      <path
         id="path702"
         d="m 65043,44750 v 1198"
         inkscape:connector-curvature="0" />
      <path
         id="path704"
         d="m 65043,45948 -51,52"
         inkscape:connector-curvature="0" />
    </g>
    <g
       id="g710"
       style="fill:#000000;fill-opacity:0;stroke:#000000;stroke-width:98.42520142;stroke-linecap:round;stroke-linejoin:round;stroke-opacity:1">
      <path
         id="path708"
         d="m 65000,44793 43,-43"
         inkscape:connector-curvature="0" />
    </g>
    <g
       id="g718"
       style="fill:#000000;fill-opacity:0;stroke:#000000;stroke-width:393.70098877;stroke-linecap:round;stroke-linejoin:round;stroke-opacity:1">
      <path
         id="path712"
         d="m 64007,46000 h -7"
         inkscape:connector-curvature="0" />
      <path
         id="path714"
         d="m 64000,46000 -1000,1000"
         inkscape:connector-curvature="0" />
      <path
         id="path716"
         d="m 63000,47000 v 1500"
         inkscape:connector-curvature="0" />
    </g>
    <g
       id="g756"
       style="fill:#000000;fill-opacity:0;stroke:#000000;stroke-width:98.42520142;stroke-linecap:round;stroke-linejoin:round;stroke-opacity:1">
      <path
         id="path720"
         d="m 67956,44250 h 794"
         inkscape:connector-curvature="0" />
      <path
         id="path722"
         d="m 69208,43791 v -563"
         inkscape:connector-curvature="0" />
      <path
         id="path724"
         d="m 68750,44250 458,-459"
         inkscape:connector-curvature="0" />
      <path
         id="path726"
         d="m 67956,43750 h -706"
         inkscape:connector-curvature="0" />
      <path
         id="path728"
         d="m 64000,49000 v -500"
         inkscape:connector-curvature="0" />
      <path
         id="path730"
         d="M 67250,49000 H 64000"
         inkscape:connector-curvature="0" />
      <path
         id="path732"
         d="m 67250,43750 v 5250"
         inkscape:connector-curvature="0" />
      <path
         id="path734"
         d="m 64000,48500 v 250"
         inkscape:connector-curvature="0" />
      <path
         id="path736"
         d="m 64000,48500 v 250"
         inkscape:connector-curvature="0" />
      <path
         id="path738"
         d="m 65043,43250 v -707"
         inkscape:connector-curvature="0" />
      <path
         id="path740"
         d="M 64000,41500 V 39500"
         inkscape:connector-curvature="0" />
      <path
         id="path742"
         d="M 65043,42543 64000,41500"
         inkscape:connector-curvature="0" />
      <path
         id="path744"
         d="m 65043,43750 h -293"
         inkscape:connector-curvature="0" />
      <path
         id="path746"
         d="m 64750,43750 -719,-719"
         inkscape:connector-curvature="0" />
      <path
         id="path748"
         d="m 64031,43031 h -531"
         inkscape:connector-curvature="0" />
      <path
         id="path750"
         d="m 63500,45000 h 500"
         inkscape:connector-curvature="0" />
      <path
         id="path752"
         d="m 64000,45000 750,-750"
         inkscape:connector-curvature="0" />
      <path
         id="path754"
         d="m 64750,44250 h 293"
         inkscape:connector-curvature="0" />
    </g>
    <g
       id="g760"
       style="fill:#000000;fill-opacity:1;stroke:#000000;stroke-width:100;stroke-linecap:round;stroke-linejoin:round;stroke-opacity:1">
      <polyline
         id="polyline758"
         points="67973,38836 67587,39221 67378,39725 67377,40271 67586,40776 67971,41162 68475,41371 69021,41372 69526,41163 69912,40778 69950,40687 69950,47311 69913,47223 69528,46837 69024,46628 68478,46627 67973,46836 67587,47221 67549,47314 67549,45100 67612,45113 68301,45113 68304,45112 68564,45112 68564,45349 68603,45441 68673,45511 68765,45550 69096,45550 69158,45487 69158,45050 69258,45050 69258,45487 69321,45550 69652,45550 69743,45511 69814,45441 69852,45349 69852,45112 69789,45050 69258,45050 69158,45050 68627,45050 68564,45112 68304,45112 68393,45095 68478,45040 68535,44957 68556,44858 68556,44641 68538,44549 68612,44549 68603,44558 68564,44650 68564,44887 68627,44950 69158,44950 69158,44512 69258,44512 69258,44950 69789,44950 69852,44887 69852,44650 69814,44558 69743,44488 69652,44450 69321,44450 69258,44512 69158,44512 69096,44450 68973,44450 69420,44002 69485,43905 69507,43791 69507,43783 69602,43783 69695,43765 69780,43711 69837,43627 69857,43528 69857,42928 69839,42835 69785,42750 69701,42693 69602,42673 68814,42673 68722,42690 68637,42745 68580,42829 68560,42928 68560,43528 68577,43620 68632,43706 68715,43763 68797,43779 68626,43950 68537,43950 68556,43858 68556,43641 68538,43549 68509,43503 68513,43499 68551,43407 68551,43362 68488,43300 68006,43300 68006,43307 67906,43307 67906,43300 67424,43300 67362,43362 67362,43407 67379,43450 67250,43450 67135,43473 67038,43538 66973,43635 66950,43750 66950,45571 65862,45571 65769,45589 65684,45644 65627,45727 65607,45826 65607,47401 65624,47494 65679,47579 65763,47636 65862,47656 66950,47656 66950,48700 65546,48700 65584,48511 65584,48488 65540,48264 65446,48125 65446,46440 65465,46428 65522,46345 65542,46246 65542,45753 65524,45661 65490,45607 65490,45089 65565,45040 65622,44957 65642,44858 65642,44641 65625,44549 65593,44499 65622,44457 65642,44358 65642,44141 65625,44049 65593,43999 65622,43957 65642,43858 65642,43641 65625,43549 65593,43499 65622,43457 65642,43358 65642,43141 65633,43092 67362,43092 67362,43137 67424,43200 67906,43200 67906,42954 68006,42954 68006,43200 68488,43200 68551,43137 68551,43092 68513,43000 68442,42929 68350,42891 68069,42891 68006,42954 67906,42954 67844,42891 67562,42891 67470,42929 67400,43000 67362,43092 65633,43092 65625,43049 65570,42963 65486,42906 65387,42886 65342,42886 65342,42543 65319,42428 65254,42331 64299,41376 64299,40629 65607,40629 65607,42204 65624,42297 65679,42382 65763,42439 65862,42459 67043,42459 67135,42442 67221,42387 67278,42303 67298,42204 67298,40629 67280,40537 67226,40452 67142,40395 67043,40375 65862,40375 65769,40392 65684,40447 65627,40530 65607,40629 64299,40629 64299,40001 64413,39924 64424,39908 64427,39927 64482,40012 64566,40069 64665,40089 65334,40089 65427,40072 65512,40017 65569,39933 65589,39834 65589,39165 65572,39072 65517,38987 65433,38930 65334,38910 64665,38910 64572,38927 64487,38982 64430,39066 64425,39092 64413,39075 64223,38948 64000,38903 63776,38948 63586,39075 63496,39209 63470,39153 63301,38999 63140,38932 63050,38980 63050,39450 63057,39450 63057,39550 63050,39550 63050,40019 63140,40067 63301,40000 63470,39846 63496,39790 63586,39924 63700,40001 63700,41500 63723,41614 63788,41711 64744,42667 64744,42886 64698,42886 64606,42904 64521,42959 64464,43041 64243,42819 64148,42756 64148,42731 64131,42638 64076,42553 63992,42496 63893,42476 63106,42476 63013,42494 62928,42548 62871,42632 62851,42731 62851,43331 62868,43424 62923,43509 62944,43523 62894,43574 62856,43666 62856,43903 62918,43965 63450,43965 63450,43957 63550,43957 63550,43965 64081,43965 64143,43903 64143,43666 64105,43574 64055,43524 64071,43514 64079,43502 64445,43869 64461,43950 64493,44000 64464,44042 64446,44130 64063,44513 64055,44507 64105,44457 64143,44365 64143,44128 64081,44065 63550,44065 63550,44073 63450,44073 63450,44065 62918,44065 62856,44128 62856,44365 62894,44457 62944,44507 62928,44517 62871,44600 62851,44700 62851,45300 62868,45392 62923,45477 63007,45534 63106,45554 63558,45554 63500,45612 63462,45704 63462,45887 63525,45950 63957,45950 63957,45942 64057,45942 64057,45950 64065,45950 64065,46050 64057,46050 64057,46433 64120,46496 64352,46496 64444,46458 64500,46402 64514,46423 64553,46450 64553,48125 64500,48204 64413,48075 64223,47948 64000,47903 63776,47948 63586,48075 63575,48092 63546,48023 63476,47953 63384,47915 63112,47915 63050,47977 63050,48450 63057,48450 63057,48550 63050,48550 63050,49022 63112,49084 63384,49084 63476,49046 63546,48976 63575,48907 63586,48924 63701,49001 63723,49114 63780,49200 62050,49200 62050,48612 62415,48612 62415,48884 62453,48976 62523,49046 62615,49084 62887,49084 62950,49022 62950,48550 62477,48550 62415,48612 62050,48612 62050,48115 62415,48115 62415,48387 62477,48450 62950,48450 62950,47977 62887,47915 62615,47915 62523,47953 62453,48023 62415,48115 62050,48115 62050,46112 63462,46112 63462,46295 63500,46387 63570,46458 63662,46496 63895,46496 63957,46433 63957,46050 63525,46050 63462,46112 62050,46112 62050,39640 62432,39640 62529,39846 62698,40000 62859,40067 62950,40019 62950,39550 62479,39550 62432,39640 62050,39640 62050,39359 62432,39359 62479,39450 62950,39450 62950,38980 62859,38932 62698,38999 62529,39153 62432,39359 62050,39359 62050,38800 68061,38800 67973,38836 "
         style="fill-rule:evenodd" />
    </g>
    <g
       id="g766"
       style="fill:#ffffff;fill-opacity:1;stroke:#ffffff;stroke-width:0;stroke-linecap:round;stroke-linejoin:round;stroke-opacity:1">
      <circle
         id="circle764"
         r="196.85001"
         cy="45000"
         cx="63500" />
    </g>
    <g
       id="g772"
       style="fill:#ffffff;fill-opacity:1;stroke:#ffffff;stroke-width:0;stroke-linecap:round;stroke-linejoin:round;stroke-opacity:1">
      <circle
         id="circle770"
         r="196.85001"
         cy="44015.699"
         cx="63500" />
    </g>
    <g
       id="g778"
       style="fill:#ffffff;fill-opacity:1;stroke:#ffffff;stroke-width:0;stroke-linecap:round;stroke-linejoin:round;stroke-opacity:1">
      <circle
         id="circle776"
         r="196.85001"
         cy="43031.5"
         cx="63500" />
    </g>
    <g
       id="g784"
       style="fill:#ffffff;fill-opacity:1;stroke:#ffffff;stroke-width:0;stroke-linecap:round;stroke-linejoin:round;stroke-opacity:1">
      <circle
         id="circle782"
         r="196.85001"
         cy="43228.301"
         cx="69208.703" />
    </g>
    <g
       id="g790"
       style="fill:#ffffff;fill-opacity:1;stroke:#ffffff;stroke-width:0;stroke-linecap:round;stroke-linejoin:round;stroke-opacity:1">
      <circle
         id="circle788"
         r="196.85001"
         cy="45000"
         cx="69208.703" />
    </g>
    <g
       id="g796"
       style="fill:#ffffff;fill-opacity:1;stroke:#ffffff;stroke-width:0;stroke-linecap:round;stroke-linejoin:round;stroke-opacity:1">
      <circle
         id="circle794"
         r="393.70099"
         cy="46614.199"
         cx="66452.797" />
    </g>
    <g
       id="g802"
       style="fill:#ffffff;fill-opacity:1;stroke:#ffffff;stroke-width:0;stroke-linecap:round;stroke-linejoin:round;stroke-opacity:1">
      <circle
         id="circle800"
         r="393.70099"
         cy="41417.301"
         cx="66452.797" />
    </g>
    <g
       id="g808"
       style="fill:#ffffff;fill-opacity:1;stroke:#ffffff;stroke-width:0;stroke-linecap:round;stroke-linejoin:round;stroke-opacity:1">
      <circle
         id="circle806"
         r="196.85001"
         cy="48500"
         cx="63000" />
    </g>
    <g
       id="g814"
       style="fill:#ffffff;fill-opacity:1;stroke:#ffffff;stroke-width:0;stroke-linecap:round;stroke-linejoin:round;stroke-opacity:1">
      <circle
         id="circle812"
         r="196.85001"
         cy="48500"
         cx="64000" />
    </g>
    <g
       id="g820"
       style="fill:#ffffff;fill-opacity:1;stroke:#ffffff;stroke-width:0;stroke-linecap:round;stroke-linejoin:round;stroke-opacity:1">
      <circle
         id="circle818"
         r="196.85001"
         cy="48500"
         cx="65000" />
    </g>
    <g
       id="g826"
       style="fill:#ffffff;fill-opacity:1;stroke:#ffffff;stroke-width:0;stroke-linecap:round;stroke-linejoin:round;stroke-opacity:1">
      <circle
         id="circle824"
         r="196.85001"
         cy="39500"
         cx="65000" />
    </g>
    <g
       id="g832"
       style="fill:#ffffff;fill-opacity:1;stroke:#ffffff;stroke-width:0;stroke-linecap:round;stroke-linejoin:round;stroke-opacity:1">
      <circle
         id="circle830"
         r="196.85001"
         cy="39500"
         cx="64000" />
    </g>
    <g
       id="g838"
       style="fill:#ffffff;fill-opacity:1;stroke:#ffffff;stroke-width:0;stroke-linecap:round;stroke-linejoin:round;stroke-opacity:1">
      <circle
         id="circle836"
         r="196.85001"
         cy="39500"
         cx="63000" />
    </g>
    <g
       id="g844"
       style="fill:#ffffff;fill-opacity:1;stroke:#ffffff;stroke-width:0;stroke-linecap:round;stroke-linejoin:round;stroke-opacity:1">
      <circle
         id="circle842"
         r="629.92102"
         cy="40000"
         cx="68750" />
    </g>
    <g
       id="g850"
       style="fill:#ffffff;fill-opacity:1;stroke:#ffffff;stroke-width:0;stroke-linecap:round;stroke-linejoin:round;stroke-opacity:1">
      <circle
         id="circle848"
         r="629.92102"
         cy="48000"
         cx="68750" />
    </g>
  </g>
  <g
     style="fill:#FFFFFF; fill-opacity:1.0;  stroke:#FFFFFF; stroke-width:39.3701; stroke-opacity:1;  stroke-linecap:round; stroke-linejoin:round;"
     id="g852" />
  <g
     style="fill:#000000; fill-opacity:1.0;  stroke:#000000; stroke-width:39.3701; stroke-opacity:1;  stroke-linecap:round; stroke-linejoin:round;"
     id="g854" />
  <g
     id="g6609"
     transform="translate(-27091.949,21593.386)">
    <g
       style="fill:#000000;fill-opacity:1;stroke:#000000;stroke-width:0;stroke-linecap:round;stroke-linejoin:round;stroke-opacity:1"
       id="g5977">
      <polyline
         style="fill-rule:evenodd"
         points="63106,45300 63106,44700 63893,44700 63893,45300 63106,45300 "
         id="polyline5961" />
      <polyline
         style="fill-rule:evenodd"
         points="63106,44315 63106,43715 63893,43715 63893,44315 63106,44315 "
         id="polyline5963" />
      <polyline
         style="fill-rule:evenodd"
         points="63106,43331 63106,42731 63893,42731 63893,43331 63106,43331 "
         id="polyline5965" />
      <polyline
         style="fill-rule:evenodd"
         points="68814,43528 68814,42928 69602,42928 69602,43528 68814,43528 "
         id="polyline5967" />
      <polyline
         style="fill-rule:evenodd"
         points="68814,45300 68814,44700 69602,44700 69602,45300 68814,45300 "
         id="polyline5969" />
      <polyline
         style="fill-rule:evenodd"
         points="65862,47401 65862,45826 67043,45826 67043,47401 65862,47401 "
         id="polyline5971" />
      <polyline
         style="fill-rule:evenodd"
         points="65862,42204 65862,40629 67043,40629 67043,42204 65862,42204 "
         id="polyline5973" />
      <polyline
         style="fill-rule:evenodd"
         points="63334,48834 62665,48834 62665,48165 63334,48165 63334,48834 "
         id="polyline5975" />
    </g>
    <g
       style="fill:#000000;fill-opacity:0;stroke:#000000;stroke-width:669.29101563;stroke-linecap:round;stroke-linejoin:round;stroke-opacity:1"
       id="g5985">
      <path
         inkscape:connector-curvature="0"
         d="m 64000,48500 v 0"
         id="path5981" />
      <path
         inkscape:connector-curvature="0"
         d="m 65000,48500 v 0"
         id="path5983" />
    </g>
    <g
       style="fill:#000000;fill-opacity:1;stroke:#000000;stroke-width:0;stroke-linecap:round;stroke-linejoin:round;stroke-opacity:1"
       id="g5991">
      <polyline
         style="fill-rule:evenodd"
         points="64665,39165 65334,39165 65334,39834 64665,39834 64665,39165 "
         id="polyline5989" />
    </g>
    <g
       style="fill:#000000;fill-opacity:0;stroke:#000000;stroke-width:669.29101563;stroke-linecap:round;stroke-linejoin:round;stroke-opacity:1"
       id="g5999">
      <path
         inkscape:connector-curvature="0"
         d="m 64000,39500 v 0"
         id="path5995" />
      <path
         inkscape:connector-curvature="0"
         d="m 63000,39500 v 0"
         id="path5997" />
    </g>
    <g
       style="fill:#000000;fill-opacity:1;stroke:#000000;stroke-width:0;stroke-linecap:round;stroke-linejoin:round;stroke-opacity:1"
       id="g6003">
      <circle
         cx="68750"
         cy="40000"
         r="1122.05"
         id="circle6001" />
    </g>
    <g
       style="fill:#000000;fill-opacity:1;stroke:#000000;stroke-width:0;stroke-linecap:round;stroke-linejoin:round;stroke-opacity:1"
       id="g6009">
      <circle
         cx="68750"
         cy="48000"
         r="1122.05"
         id="circle6007" />
    </g>
    <g
       style="fill:#000000;fill-opacity:0;stroke:#000000;stroke-width:393.70098877;stroke-linecap:round;stroke-linejoin:round;stroke-opacity:1"
       id="g6037">
      <path
         inkscape:connector-curvature="0"
         d="M 65000,48500 V 39500"
         id="path6015" />
      <path
         inkscape:connector-curvature="0"
         d="M 63500,44015 H 62500"
         id="path6017" />
      <path
         inkscape:connector-curvature="0"
         d="m 62500,44015 v -15"
         id="path6019" />
      <path
         inkscape:connector-curvature="0"
         d="M 63000,48500 V 46000"
         id="path6021" />
      <path
         inkscape:connector-curvature="0"
         d="M 63000,42000 V 39500"
         id="path6023" />
      <path
         inkscape:connector-curvature="0"
         d="m 62500,42500 500,-500"
         id="path6025" />
      <path
         inkscape:connector-curvature="0"
         d="M 62500,45500 V 44000"
         id="path6027" />
      <path
         inkscape:connector-curvature="0"
         d="M 62500,44000 V 42500"
         id="path6029" />
      <path
         inkscape:connector-curvature="0"
         d="m 63000,46000 -500,-500"
         id="path6031" />
      <path
         inkscape:connector-curvature="0"
         d="M 63000,48500 V 47000"
         id="path6033" />
      <path
         inkscape:connector-curvature="0"
         d="m 63000,47000 1000,-1000"
         id="path6035" />
    </g>
    <g
       style="fill:#000000;fill-opacity:1;stroke:#000000;stroke-width:100;stroke-linecap:round;stroke-linejoin:round;stroke-opacity:1"
       id="g6041">
      <polyline
         style="fill-rule:evenodd"
         points="67973,38836 67587,39221 67378,39725 67377,40271 67586,40776 67971,41162 68475,41371 69021,41372 69526,41163 69912,40778 69950,40687 69950,47311 69913,47223 69528,46837 69024,46628 68478,46627 67973,46836 67587,47221 67378,47725 67377,48271 67586,48776 67971,49162 68062,49200 62050,49200 62050,48612 62415,48612 62415,48884 62453,48976 62523,49046 62615,49084 62887,49084 62950,49022 62950,48550 62477,48550 62415,48612 62050,48612 62050,48115 62415,48115 62415,48387 62477,48450 62950,48450 62950,47977 62887,47915 62615,47915 62523,47953 62453,48023 62415,48115 62050,48115 62050,44700 62851,44700 62851,45300 62868,45392 62923,45477 63007,45534 63106,45554 63893,45554 63986,45537 64071,45482 64128,45399 64148,45300 64148,44700 64131,44607 64076,44522 64055,44507 64105,44457 64143,44365 64143,44128 64081,44065 63550,44065 63550,44073 63450,44073 63450,44065 62918,44065 62856,44128 62856,44365 62894,44457 62944,44507 62928,44517 62871,44600 62851,44700 62050,44700 62050,42731 62851,42731 62851,43331 62868,43424 62923,43509 62944,43523 62894,43574 62856,43666 62856,43903 62918,43965 63450,43965 63450,43957 63550,43957 63550,43965 64081,43965 64143,43903 64143,43666 64105,43574 64055,43524 64071,43514 64128,43430 64148,43331 64148,42731 64131,42638 64076,42553 63992,42496 63893,42476 63106,42476 63013,42494 62928,42548 62871,42632 62851,42731 62050,42731 62050,39640 62432,39640 62529,39846 62698,40000 62859,40067 62950,40019 62950,39550 62479,39550 62432,39640 62050,39640 62050,39359 62432,39359 62479,39450 62950,39450 62950,38980 63050,38980 63050,39450 63057,39450 63057,39550 63050,39550 63050,40019 63140,40067 63301,40000 63470,39846 63496,39790 63586,39924 63776,40051 64000,40096 64223,40051 64413,39924 64424,39908 64427,39927 64482,40012 64553,40060 64553,48125 64500,48204 64413,48075 64223,47948 64000,47903 63776,47948 63586,48075 63575,48092 63546,48023 63476,47953 63384,47915 63112,47915 63050,47977 63050,48450 63057,48450 63057,48550 63050,48550 63050,49022 63112,49084 63384,49084 63476,49046 63546,48976 63575,48907 63586,48924 63776,49051 64000,49096 64223,49051 64413,48924 64500,48795 64586,48924 64776,49051 65000,49096 65223,49051 65413,48924 65540,48735 65584,48511 65584,48488 65540,48264 65446,48125 65446,45826 65607,45826 65607,47401 65624,47494 65679,47579 65763,47636 65862,47656 67043,47656 67135,47639 67221,47584 67278,47500 67298,47401 67298,45826 67280,45734 67226,45649 67142,45591 67043,45571 65862,45571 65769,45589 65684,45644 65627,45727 65607,45826 65446,45826 65446,45112 68564,45112 68564,45349 68603,45441 68673,45511 68765,45550 69096,45550 69158,45487 69158,45050 69258,45050 69258,45487 69321,45550 69652,45550 69743,45511 69814,45441 69852,45349 69852,45112 69789,45050 69258,45050 69158,45050 68627,45050 68564,45112 65446,45112 65446,44650 68564,44650 68564,44887 68627,44950 69158,44950 69158,44512 69258,44512 69258,44950 69789,44950 69852,44887 69852,44650 69814,44558 69743,44488 69652,44450 69321,44450 69258,44512 69158,44512 69096,44450 68765,44450 68673,44488 68603,44558 68564,44650 65446,44650 65446,42928 68560,42928 68560,43528 68577,43620 68632,43706 68715,43763 68814,43783 69602,43783 69695,43765 69780,43711 69837,43627 69857,43528 69857,42928 69839,42835 69785,42750 69701,42693 69602,42673 68814,42673 68722,42690 68637,42745 68580,42829 68560,42928 65446,42928 65446,40629 65607,40629 65607,42204 65624,42297 65679,42382 65763,42439 65862,42459 67043,42459 67135,42442 67221,42387 67278,42303 67298,42204 67298,40629 67280,40537 67226,40452 67142,40395 67043,40375 65862,40375 65769,40392 65684,40447 65627,40530 65607,40629 65446,40629 65446,40059 65512,40017 65569,39933 65589,39834 65589,39165 65572,39072 65517,38987 65433,38930 65334,38910 64665,38910 64572,38927 64487,38982 64430,39066 64425,39092 64413,39075 64223,38948 64000,38903 63776,38948 63586,39075 63496,39209 63470,39153 63301,38999 63140,38932 63050,38980 62950,38980 62859,38932 62698,38999 62529,39153 62432,39359 62050,39359 62050,38800 68061,38800 67973,38836 "
         id="polyline6039" />
    </g>
    <g
       style="fill:#ffffff;fill-opacity:1;stroke:#ffffff;stroke-width:0;stroke-linecap:round;stroke-linejoin:round;stroke-opacity:1"
       id="g6047">
      <circle
         cx="63500"
         cy="45000"
         r="196.85001"
         id="circle6045" />
    </g>
    <g
       style="fill:#ffffff;fill-opacity:1;stroke:#ffffff;stroke-width:0;stroke-linecap:round;stroke-linejoin:round;stroke-opacity:1"
       id="g6053">
      <circle
         cx="63500"
         cy="44015.699"
         r="196.85001"
         id="circle6051" />
    </g>
    <g
       style="fill:#ffffff;fill-opacity:1;stroke:#ffffff;stroke-width:0;stroke-linecap:round;stroke-linejoin:round;stroke-opacity:1"
       id="g6059">
      <circle
         cx="63500"
         cy="43031.5"
         r="196.85001"
         id="circle6057" />
    </g>
    <g
       style="fill:#ffffff;fill-opacity:1;stroke:#ffffff;stroke-width:0;stroke-linecap:round;stroke-linejoin:round;stroke-opacity:1"
       id="g6065">
      <circle
         cx="69208.703"
         cy="43228.301"
         r="196.85001"
         id="circle6063" />
    </g>
    <g
       style="fill:#ffffff;fill-opacity:1;stroke:#ffffff;stroke-width:0;stroke-linecap:round;stroke-linejoin:round;stroke-opacity:1"
       id="g6071">
      <circle
         cx="69208.703"
         cy="45000"
         r="196.85001"
         id="circle6069" />
    </g>
    <g
       style="fill:#ffffff;fill-opacity:1;stroke:#ffffff;stroke-width:0;stroke-linecap:round;stroke-linejoin:round;stroke-opacity:1"
       id="g6077">
      <circle
         cx="66452.797"
         cy="46614.199"
         r="393.70099"
         id="circle6075" />
    </g>
    <g
       style="fill:#ffffff;fill-opacity:1;stroke:#ffffff;stroke-width:0;stroke-linecap:round;stroke-linejoin:round;stroke-opacity:1"
       id="g6083">
      <circle
         cx="66452.797"
         cy="41417.301"
         r="393.70099"
         id="circle6081" />
    </g>
    <g
       style="fill:#ffffff;fill-opacity:1;stroke:#ffffff;stroke-width:0;stroke-linecap:round;stroke-linejoin:round;stroke-opacity:1"
       id="g6089">
      <circle
         cx="63000"
         cy="48500"
         r="196.85001"
         id="circle6087" />
    </g>
    <g
       style="fill:#ffffff;fill-opacity:1;stroke:#ffffff;stroke-width:0;stroke-linecap:round;stroke-linejoin:round;stroke-opacity:1"
       id="g6095">
      <circle
         cx="64000"
         cy="48500"
         r="196.85001"
         id="circle6093" />
    </g>
    <g
       style="fill:#ffffff;fill-opacity:1;stroke:#ffffff;stroke-width:0;stroke-linecap:round;stroke-linejoin:round;stroke-opacity:1"
       id="g6101">
      <circle
         cx="65000"
         cy="48500"
         r="196.85001"
         id="circle6099" />
    </g>
    <g
       style="fill:#ffffff;fill-opacity:1;stroke:#ffffff;stroke-width:0;stroke-linecap:round;stroke-linejoin:round;stroke-opacity:1"
       id="g6107">
      <circle
         cx="65000"
         cy="39500"
         r="196.85001"
         id="circle6105" />
    </g>
    <g
       style="fill:#ffffff;fill-opacity:1;stroke:#ffffff;stroke-width:0;stroke-linecap:round;stroke-linejoin:round;stroke-opacity:1"
       id="g6113">
      <circle
         cx="64000"
         cy="39500"
         r="196.85001"
         id="circle6111" />
    </g>
    <g
       style="fill:#ffffff;fill-opacity:1;stroke:#ffffff;stroke-width:0;stroke-linecap:round;stroke-linejoin:round;stroke-opacity:1"
       id="g6119">
      <circle
         cx="63000"
         cy="39500"
         r="196.85001"
         id="circle6117" />
    </g>
    <g
       style="fill:#ffffff;fill-opacity:1;stroke:#ffffff;stroke-width:0;stroke-linecap:round;stroke-linejoin:round;stroke-opacity:1"
       id="g6125">
      <circle
         cx="68750"
         cy="40000"
         r="629.92102"
         id="circle6123" />
    </g>
    <g
       style="fill:#ffffff;fill-opacity:1;stroke:#ffffff;stroke-width:0;stroke-linecap:round;stroke-linejoin:round;stroke-opacity:1"
       id="g6131">
      <circle
         cx="68750"
         cy="48000"
         r="629.92102"
         id="circle6129" />
    </g>
  </g>
</svg>
